<?xml version="1.0" encoding="UTF-8" standalone="no"?>
<!DOCTYPE svg PUBLIC "-//W3C//DTD SVG 1.1//EN"
 "http://www.w3.org/Graphics/SVG/1.1/DTD/svg11.dtd">
<!-- Generated by graphviz version 2.36.0 (20140111.2315)
 -->
<!-- Title: %3 Pages: 1 -->
<svg width="664pt" height="228pt"
 viewBox="0.00 0.00 664.00 227.80" xmlns="http://www.w3.org/2000/svg" xmlns:xlink="http://www.w3.org/1999/xlink">
<g id="graph0" class="graph" transform="scale(1 1) rotate(0) translate(4 223.8)">
<title>%3</title>
<polygon fill="white" stroke="none" points="-4,4 -4,-223.8 660,-223.8 660,4 -4,4"/>
<text text-anchor="middle" x="328" y="-7.8" font-family="Times,serif" font-size="14.00">Lifecycle</text>
<!-- develop -->
<g id="node1" class="node"><title>develop</title>
<ellipse fill="darksalmon" stroke="red" cx="47" cy="-109.8" rx="43" ry="43"/>
<ellipse fill="none" stroke="red" cx="47" cy="-109.8" rx="47" ry="47"/>
<text text-anchor="middle" x="47" y="-106.1" font-family="Times,serif" font-size="14.00">develop</text>
</g>
<!-- live -->
<g id="node2" class="node"><title>live</title>
<ellipse fill="white" stroke="black" cx="213" cy="-167.8" rx="43" ry="43"/>
<text text-anchor="middle" x="213" y="-164.1" font-family="Times,serif" font-size="14.00">live</text>
</g>
<!-- develop&#45;&gt;live -->
<g id="edge1" class="edge"><title>develop&#45;&gt;live</title>
<path fill="none" stroke="black" d="M91.5184,-125.191C113.439,-132.943 140.104,-142.374 162.771,-150.39"/>
<polygon fill="black" stroke="black" points="161.62,-153.695 172.215,-153.73 163.954,-147.096 161.62,-153.695"/>
<text text-anchor="middle" x="132" y="-148.6" font-family="Times,serif" font-size="14.00">publish</text>
</g>
<!-- deleted -->
<g id="node3" class="node"><title>deleted</title>
<ellipse fill="white" stroke="black" cx="411" cy="-74.8" rx="43" ry="43"/>
<text text-anchor="middle" x="411" y="-71.1" font-family="Times,serif" font-size="14.00">deleted</text>
</g>
<!-- develop&#45;&gt;deleted -->
<g id="edge2" class="edge"><title>develop&#45;&gt;deleted</title>
<path fill="none" stroke="black" d="M93.8476,-105.367C161.395,-98.8364 287.285,-86.6647 358.125,-79.8156"/>
<polygon fill="black" stroke="black" points="358.547,-83.2912 368.163,-78.845 357.873,-76.3237 358.547,-83.2912"/>
<text text-anchor="middle" x="213" y="-100.6" font-family="Times,serif" font-size="14.00">mark_deleted</text>
</g>
<!-- live&#45;&gt;deleted -->
<g id="edge4" class="edge"><title>live&#45;&gt;deleted</title>
<path fill="none" stroke="black" d="M252.256,-149.648C283.824,-134.669 328.766,-113.345 362.609,-97.2863"/>
<polygon fill="black" stroke="black" points="364.306,-100.355 371.84,-92.9063 361.305,-94.0311 364.306,-100.355"/>
<text text-anchor="middle" x="312" y="-140.6" font-family="Times,serif" font-size="14.00">mark_deleted</text>
</g>
<!-- maintenance -->
<g id="node4" class="node"><title>maintenance</title>
<ellipse fill="white" stroke="black" cx="611" cy="-148.8" rx="44.7514" ry="44.7514"/>
<text text-anchor="middle" x="611" y="-145.1" font-family="Times,serif" font-size="14.00">maintenance</text>
</g>
<!-- live&#45;&gt;maintenance -->
<g id="edge3" class="edge"><title>live&#45;&gt;maintenance</title>
<path fill="none" stroke="black" d="M256.004,-165.785C328.299,-162.316 476.156,-155.222 555.995,-151.391"/>
<polygon fill="black" stroke="black" points="556.504,-154.871 566.325,-150.896 556.168,-147.879 556.504,-154.871"/>
<text text-anchor="middle" x="411" y="-163.6" font-family="Times,serif" font-size="14.00">make_private</text>
</g>
<!-- deleted&#45;&gt;maintenance -->
<g id="edge7" class="edge"><title>deleted&#45;&gt;maintenance</title>
<path fill="none" stroke="black" d="M453.534,-67.7292C481.531,-64.9021 518.582,-65.0344 548,-78.8 560.186,-84.5022 570.98,-93.8486 580.006,-103.882"/>
<polygon fill="black" stroke="black" points="577.431,-106.258 586.557,-111.64 582.779,-101.741 577.431,-106.258"/>
<text text-anchor="middle" x="510" y="-82.6" font-family="Times,serif" font-size="14.00">revert_delete</text>
</g>
<!-- maintenance&#45;&gt;live -->
<g id="edge5" class="edge"><title>maintenance&#45;&gt;live</title>
<path fill="none" stroke="black" d="M568.2,-161.892C561.488,-163.717 554.585,-165.433 548,-166.8 428.687,-191.578 395.418,-187.155 274,-176.8 271.289,-176.569 268.515,-176.293 265.717,-175.983"/>
<polygon fill="black" stroke="black" points="265.909,-172.48 255.556,-174.735 265.055,-179.428 265.909,-172.48"/>
<text text-anchor="middle" x="411" y="-188.6" font-family="Times,serif" font-size="14.00">publish</text>
</g>
<!-- maintenance&#45;&gt;deleted -->
<g id="edge6" class="edge"><title>maintenance&#45;&gt;deleted</title>
<path fill="none" stroke="black" d="M568.772,-133.392C537.432,-121.679 494.21,-105.525 461.086,-93.1451"/>
<polygon fill="black" stroke="black" points="462.185,-89.8196 451.592,-89.5972 459.734,-96.3766 462.185,-89.8196"/>
<text text-anchor="middle" x="510" y="-128.6" font-family="Times,serif" font-size="14.00">mark_deleted</text>
</g>
</g>
</svg>
